HIERARCHY
ROOT Hips
{
	OFFSET 0.000000 0.000000 0.000000
	CHANNELS 6 Xposition Yposition Zposition Zrotation Yrotation Xrotation 
	JOINT LHipJoint
	{
		OFFSET 0.000000 0.000000 0.000000
		CHANNELS 3 Zrotation Yrotation Xrotation
		JOINT LeftUpLeg
		{
			OFFSET 1.363060 -1.794630 0.839290
			CHANNELS 3 Zrotation Yrotation Xrotation
			JOINT LeftLeg
			{
				OFFSET 2.448110 -6.726130 0.000000
				CHANNELS 3 Zrotation Yrotation Xrotation
				JOINT LeftFoot
				{
					OFFSET 2.562200 -7.039590 0.000000
					CHANNELS 3 Zrotation Yrotation Xrotation
					JOINT LeftToeBase
					{
						OFFSET 0.157640 -0.433110 2.322550
						CHANNELS 3 Zrotation Yrotation Xrotation
						End Site
						{
							OFFSET 0.000000 0.000000 0.000000
						}
					}
				}
			}
		}
	}
	JOINT RHipJoint
	{
		OFFSET 0.000000 0.000000 0.000000
		CHANNELS 3 Zrotation Yrotation Xrotation
		JOINT RightUpLeg
		{
			OFFSET -1.305520 -1.794630 0.839290
			CHANNELS 3 Zrotation Yrotation Xrotation
			JOINT RightLeg
			{
				OFFSET -2.542530 -6.985550 0.000000
				CHANNELS 3 Zrotation Yrotation Xrotation
				JOINT RightFoot
				{
					OFFSET -2.568260 -7.056230 0.000000
					CHANNELS 3 Zrotation Yrotation Xrotation
					JOINT RightToeBase
					{
						OFFSET -0.164730 -0.452590 2.363150
						CHANNELS 3 Zrotation Yrotation Xrotation
						End Site
						{
							OFFSET 0.000000 0.000000 0.000000
						}
					}
				}
			}
		}
	}
	JOINT LowerBack
	{
		OFFSET 0.000000 0.000000 0.000000
		CHANNELS 3 Zrotation Yrotation Xrotation
		JOINT Spine
		{
			OFFSET 0.028270 2.035590 -0.193380
			CHANNELS 3 Zrotation Yrotation Xrotation
			JOINT Spine1
			{
				OFFSET 0.056720 2.048850 -0.042750
				CHANNELS 3 Zrotation Yrotation Xrotation
				JOINT Neck
				{
					OFFSET 0.000000 0.000000 0.000000
					CHANNELS 3 Zrotation Yrotation Xrotation
					JOINT Neck1
					{
						OFFSET -0.054170 1.746240 0.172020
						CHANNELS 3 Zrotation Yrotation Xrotation
						JOINT Head
						{
							OFFSET 0.104070 1.761360 -0.123970
							CHANNELS 3 Zrotation Yrotation Xrotation
							End Site
							{
								OFFSET 0.000000 0.000000 0.000000
							}
						}
					}
				}
				JOINT LeftShoulder
				{
					OFFSET 0.000000 0.000000 0.000000
					CHANNELS 3 Zrotation Yrotation Xrotation
					JOINT LeftArm
					{
						OFFSET 3.362410 1.200890 -0.311210
						CHANNELS 3 Zrotation Yrotation Xrotation
						JOINT LeftForeArm
						{
							OFFSET 4.983000 -0.000000 -0.000000
							CHANNELS 3 Zrotation Yrotation Xrotation
							JOINT LeftHand
							{
								OFFSET 3.483560 -0.000000 -0.000000
								CHANNELS 3 Zrotation Yrotation Xrotation
								JOINT LeftFingerBase
								{
									OFFSET 0.000000 0.000000 0.000000
									CHANNELS 3 Zrotation Yrotation Xrotation
									JOINT LeftHandIndex1
									{
										OFFSET 0.715260 -0.000000 -0.000000
										CHANNELS 3 Zrotation Yrotation Xrotation
										End Site
										{
											OFFSET 0.000000 0.000000 0.000000
										}
									}
								}
								JOINT LThumb
								{
									OFFSET 0.000000 0.000000 0.000000
									CHANNELS 3 Zrotation Yrotation Xrotation
									End Site
									{
										OFFSET 0.000000 0.000000 0.000000
									}
								}
							}
						}
					}
				}
				JOINT RightShoulder
				{
					OFFSET 0.000000 0.000000 0.000000
					CHANNELS 3 Zrotation Yrotation Xrotation
					JOINT RightArm
					{
						OFFSET -3.136600 1.374050 -0.404650
						CHANNELS 3 Zrotation Yrotation Xrotation
						JOINT RightForeArm
						{
							OFFSET -5.241900 -0.000000 -0.000000
							CHANNELS 3 Zrotation Yrotation Xrotation
							JOINT RightHand
							{
								OFFSET -3.444170 -0.000000 -0.000000
								CHANNELS 3 Zrotation Yrotation Xrotation
								JOINT RightFingerBase
								{
									OFFSET 0.000000 0.000000 0.000000
									CHANNELS 3 Zrotation Yrotation Xrotation
									JOINT RightHandIndex1
									{
										OFFSET -0.622530 -0.000000 -0.000000
										CHANNELS 3 Zrotation Yrotation Xrotation
										End Site
										{
											OFFSET 0.000000 0.000000 0.000000
										}
									}
								}
								JOINT RThumb
								{
									OFFSET 0.000000 0.000000 0.000000
									CHANNELS 3 Zrotation Yrotation Xrotation
									End Site
									{
										OFFSET 0.000000 0.000000 0.000000
									}
								}
							}
						}
					}
				}
			}
		}
	}
}
MOTION
Frames: 6
Frame Time: 0.008333
1.082389 16.858009 -2.091828 -169.342131 87.994900 -165.191643 -9.611919 1.044910 0.681464 -20.199035 12.167409 -33.372647 -2.500135 0.087030 23.100133 3.191444 15.094156 -14.927321 178.183601 0.000000 -3.435300 10.955993 -4.240038 -1.734075 -5.688312 -19.354140 -0.074641 0.236272 -2.795204 36.772123 -0.067596 13.411000 22.375363 6.588401 0.000000 -97.901700 -4.740157 2.413409 -0.783492 -1.292402 2.703391 -3.384071 -3.556015 2.614036 -0.645116 3.814910 -3.592802 -7.937167 -1.137177 -0.088854 -0.041703 0.000000 0.000000 0.000000 -8.545226 19.622432 2.482472 -60.543156 31.844720 9.268561 -4.892399 -20.624353 -0.043205 -6.927104 12.594309 -0.760268 -0.125175 -0.125743 -0.000000 0.000000 0.000000 0.000000 0.000000 0.000000 0.000000 -1.014974 3.802673 -0.727455 31.008882 34.602283 15.360628 0.137344 83.856377 -0.038885 -4.818789 4.711372 -0.217866 -0.002268 -0.460822 -0.000000 0.000000 0.000000 0.000000 0.000000 0.000000 0.000000 
1.248213 16.786767 -2.131701 -178.731542 87.808293 -174.649562 -9.592118 1.234985 0.585492 -20.717511 12.335648 -34.030982 -2.536471 0.365558 25.619788 3.158801 14.690655 -15.832257 177.940900 0.000000 -4.633500 11.079243 -3.994785 -1.777680 -6.465943 -19.616399 -1.481463 -0.051638 -2.879258 40.254153 -0.304463 12.827234 24.415763 6.822900 0.000000 -97.076600 -5.298541 2.264588 -0.640934 -1.421654 2.588113 -3.372644 -3.674820 2.499670 -0.661369 4.312900 -3.567774 -8.018151 -1.210565 -0.092641 -0.070338 0.000000 0.000000 0.000000 -8.525790 19.371001 2.571914 -60.582073 30.760970 9.651733 -4.871778 -20.553296 -0.042763 -6.964920 12.746435 -0.773360 -0.124696 -0.119696 -0.000000 0.000000 0.000000 0.000000 0.000000 0.000000 0.000000 -0.281505 3.911369 -0.600049 32.298923 34.053609 16.022429 0.145812 83.667582 -0.037460 -4.738214 4.703380 -0.213884 0.003277 -0.458835 -0.000000 0.000000 0.000000 0.000000 0.000000 0.000000 0.000000 
1.408490 16.711742 -2.171001 174.569735 87.520978 178.591371 -9.542297 1.403479 0.472202 -21.206846 12.448638 -34.705209 -2.560097 0.644398 28.210792 3.121792 14.269839 -16.759383 177.707000 0.000000 -5.767100 11.232128 -3.726309 -1.835845 -7.149253 -19.815695 -2.951339 -0.320584 -2.963824 43.836750 -0.573797 11.499426 26.247307 6.590100 0.000000 -95.091800 -5.795604 2.099288 -0.444511 -1.540865 2.452581 -3.348548 -3.795016 2.367703 -0.677845 4.794971 -3.522979 -8.121051 -1.291462 -0.096554 -0.107210 0.000000 0.000000 0.000000 -8.579032 19.144993 2.676040 -60.548650 29.405069 10.108627 -4.847913 -20.380644 -0.041894 -6.962048 12.837910 -0.778143 -0.124258 -0.111916 -0.000000 0.000000 0.000000 0.000000 0.000000 0.000000 0.000000 0.450329 4.048528 -0.473129 33.646746 33.451847 16.638580 0.153748 83.418439 -0.036007 -4.643313 4.752619 -0.211700 0.008430 -0.457615 -0.000000 0.000000 0.000000 0.000000 0.000000 0.000000 0.000000 
1.562655 16.633799 -2.210267 169.867470 87.144622 173.827813 -9.490321 1.538326 0.341350 -21.655714 12.482616 -35.330765 -2.563305 0.915081 30.806644 3.088219 13.883012 -17.697834 177.479200 0.000000 -6.781200 11.385943 -3.442839 -1.921042 -7.746248 -19.955549 -4.453033 -0.564154 -3.062924 47.498623 -0.868662 9.403798 27.708733 5.803500 -0.000000 -91.913500 -6.244620 1.921354 -0.178991 -1.649789 2.301883 -3.310023 -3.914231 2.222305 -0.698057 5.249627 -3.463251 -8.241371 -1.379966 -0.100621 -0.151378 0.000000 0.000000 0.000000 -8.704770 18.923979 2.793824 -60.445443 27.766425 10.625036 -4.825212 -20.078128 -0.040625 -6.923886 12.853938 -0.774114 -0.124052 -0.102298 -0.000000 0.000000 0.000000 0.000000 0.000000 0.000000 0.000000 1.170132 4.204665 -0.348975 35.050420 32.782339 17.192353 0.161849 83.102590 -0.034665 -4.553075 4.881350 -0.212913 0.013392 -0.457503 -0.000000 0.000000 0.000000 0.000000 0.000000 0.000000 0.000000 
1.710533 16.554046 -2.250088 166.667148 86.689112 170.557848 -9.449397 1.637175 0.194528 -22.056255 12.420873 -35.850869 -2.544499 1.170567 33.339289 3.065562 13.572295 -18.645333 177.250400 0.000000 -7.647200 11.527611 -3.149137 -2.041207 -8.265018 -20.039663 -5.961611 -0.784427 -3.187281 51.208359 -1.181570 6.599059 28.641743 4.464301 0.000000 -87.636900 -6.645924 1.739333 0.163772 -1.747028 2.144642 -3.256793 -4.031797 2.071421 -0.725299 5.666343 -3.394695 -8.372743 -1.475928 -0.104904 -0.201172 0.000000 0.000000 0.000000 -8.897303 18.687165 2.922435 -60.277241 25.842454 11.181377 -4.807174 -19.628289 -0.038976 -6.847186 12.783153 -0.760476 -0.124232 -0.090807 -0.000000 0.000000 0.000000 0.000000 0.000000 0.000000 0.000000 1.867434 4.369647 -0.229998 36.516074 32.023482 17.670387 0.170996 82.707320 -0.033546 -4.487145 5.105549 -0.218827 0.018410 -0.458624 -0.000000 0.000000 0.000000 0.000000 0.000000 0.000000 0.000000 
1.852265 16.473925 -2.291044 164.605698 86.160088 168.414810 -9.424372 1.701185 0.034552 -22.405392 12.253574 -36.220239 -2.505943 1.404707 35.747295 3.059606 13.366234 -19.604438 177.011700 -0.000000 -8.340800 11.652675 -2.851914 -2.199013 -8.711402 -20.072163 -7.460563 -0.988668 -3.344821 54.922444 -1.503752 3.238814 28.919428 2.683700 -0.000000 -82.480300 -6.993413 1.562711 0.583566 -1.831186 1.989758 -3.189938 -4.148156 1.923481 -0.761797 6.035960 -3.324685 -8.507832 -1.578723 -0.109456 -0.254460 0.000000 0.000000 0.000000 -9.145313 18.415897 3.057859 -60.051046 23.637930 11.751085 -4.796018 -19.025392 -0.036961 -6.716727 12.619520 -0.735227 -0.124883 -0.077486 -0.000000 0.000000 0.000000 0.000000 0.000000 0.000000 0.000000 2.532234 4.530853 -0.119080 38.054263 31.150273 18.062348 0.182287 82.212616 -0.032737 -4.464773 5.433357 -0.230941 0.023730 -0.460843 -0.000000 0.000000 0.000000 0.000000 0.000000 0.000000 0.000000 
